<?xml version="1.0" encoding="UTF-8"?>
<svg id="Layer_1" xmlns="http://www.w3.org/2000/svg" viewBox="0 0 16 16">
  <defs>
    <style>
      .cls-1 {
        fill: #154577;
      }
    </style>
  </defs>
  <path class="cls-1" d="M1.1,14.14s-.06.09-.05-.02L7.43,2.04c.33-.3.82-.26,1.12.05.85,1.58,1.77,3.15,2.58,4.75.05.09.2.35.18.42s-.18.34-.24.42c-.27.42-.65.77-1.04,1.09l-1.87-3.54c-.25-.35-.37-.09-.52.16-1,1.7-1.8,3.58-2.8,5.29-.04.14-.07.42.08.49.12.05.86-.13,1.04-.17,1.98-.4,4.39-.89,5.55-2.71.97-1.51.7-3.27-.68-4.4,1.49.71,2.5,2.37,2.42,4.03-.12,2.49-2.14,4.1-4.42,4.6-1.76.39-3.38.39-5.13,1.06-.41.15-1,.54-1.39.54s-.82-.02-1.21,0Z"/>
  <path class="cls-1" d="M14.95,14.17c-.05-.03-.09-.03-.15-.04-.65-.02-1.29.04-1.94,0-.08-.02-.13-.13-.17-.21-.36-.61-.64-1.31-1.01-1.92.49-.44,1.01-.86,1.34-1.43l1.94,3.6Z"/>
</svg>