<?xml version="1.0" encoding="UTF-8"?>
<svg id="Layer_1" xmlns="http://www.w3.org/2000/svg" viewBox="0 0 32 32">
  <defs>
    <style>
      .cls-1 {
        fill: #154577;
      }
    </style>
  </defs>
  <path class="cls-1" d="M.92,29.42s-.13.19-.11-.04L14.75,2.96c.72-.67,1.78-.57,2.46.12,1.85,3.46,3.87,6.88,5.63,10.39.1.2.43.76.4.93s-.4.75-.51.93c-.6.92-1.43,1.69-2.27,2.38l-4.1-7.74c-.55-.76-.82-.19-1.13.35-2.19,3.71-3.93,7.84-6.13,11.56-.09.3-.16.93.17,1.07.25.11,1.88-.28,2.28-.36,4.32-.88,9.6-1.94,12.14-5.93,2.11-3.3,1.53-7.15-1.5-9.62,3.25,1.55,5.47,5.18,5.29,8.81-.26,5.44-4.67,8.97-9.67,10.07-3.85.85-7.39.86-11.22,2.31-.89.34-2.19,1.19-3.04,1.19s-1.79-.04-2.65,0Z"/>
  <path class="cls-1" d="M31.2,29.49c-.11-.06-.21-.08-.34-.08-1.42-.04-2.82.08-4.24,0-.18-.03-.29-.29-.38-.45-.79-1.34-1.4-2.86-2.21-4.2,1.06-.96,2.2-1.87,2.93-3.14l4.23,7.86Z"/>
</svg>