<?xml version="1.0" encoding="UTF-8"?>
<svg id="Layer_1" xmlns="http://www.w3.org/2000/svg" viewBox="0 0 48 48">
  <defs>
    <style>
      .cls-1 {
        fill: #154577;
      }
    </style>
  </defs>
  <path class="cls-1" d="M1.41,44.1c-.05,0-.2.29-.17-.05L22.13,4.46c1.08-1,2.67-.85,3.68.17,2.78,5.19,5.79,10.3,8.44,15.57.15.3.64,1.14.6,1.39s-.6,1.12-.77,1.39c-.9,1.38-2.14,2.53-3.4,3.56l-6.13-11.59c-.83-1.14-1.22-.28-1.7.53-3.28,5.56-5.89,11.74-9.18,17.32-.14.44-.24,1.39.25,1.61.38.17,2.81-.42,3.42-.54,6.47-1.31,14.38-2.91,18.19-8.88,3.16-4.95,2.3-10.71-2.24-14.42,4.87,2.31,8.19,7.75,7.93,13.2-.39,8.15-7,13.43-14.48,15.08-5.77,1.27-11.07,1.28-16.81,3.46-1.33.5-3.29,1.78-4.56,1.78s-2.67-.06-3.96,0Z"/>
  <path class="cls-1" d="M46.76,44.21c-.17-.09-.31-.11-.5-.12-2.12-.06-4.23.12-6.35,0-.27-.05-.43-.44-.57-.68-1.18-2-2.09-4.29-3.31-6.29,1.59-1.43,3.3-2.81,4.39-4.7l6.34,11.78Z"/>
</svg>