<?xml version="1.0" encoding="UTF-8"?>
<svg id="Layer_1" xmlns="http://www.w3.org/2000/svg" viewBox="0 0 180 180">
  <defs>
    <style>
      .cls-1 {
        fill: #154577;
      }
    </style>
  </defs>
  <path class="cls-1" d="M6.24,164.53c-.19,0-.73,1.08-.62-.2L83.06,17.55c4.02-3.7,9.91-3.15,13.66.65,10.3,19.23,21.47,38.21,31.29,57.72.56,1.11,2.37,4.21,2.23,5.16s-2.22,4.16-2.86,5.15c-3.33,5.12-7.92,9.37-12.6,13.21l-22.75-42.97c-3.07-4.22-4.53-1.04-6.3,1.96-12.14,20.62-21.84,43.52-34.03,64.22-.51,1.64-.88,5.14.94,5.96,1.4.63,10.42-1.56,12.67-2.01,23.99-4.87,53.3-10.8,67.44-32.91,11.73-18.34,8.53-39.72-8.32-53.45,18.04,8.58,30.37,28.75,29.41,48.93-1.44,30.22-25.95,49.81-53.68,55.91-21.39,4.7-41.03,4.75-62.33,12.83-4.93,1.87-12.19,6.61-16.9,6.61s-9.92-.23-14.7,0Z"/>
  <path class="cls-1" d="M174.4,164.94c-.63-.32-1.15-.42-1.86-.44-7.87-.22-15.68.45-23.54.03-1.01-.19-1.59-1.64-2.1-2.51-4.36-7.43-7.76-15.89-12.26-23.32,5.89-5.32,12.24-10.41,16.26-17.42l23.5,43.67Z"/>
</svg>